<svg xmlns="http://www.w3.org/2000/svg" width="1200" height="320" viewBox="0 0 1200 320" role="img" aria-labelledby="title desc">
  <title id="title">PowerBookmark — SWIR browser script toolkit</title>
  <desc id="desc">Dark electric-cyan PowerBookmark banner with a bookmark and JavaScript braces.</desc>
  <defs>
    <linearGradient id="bg" x1="0" y1="0" x2="1" y2="1"><stop offset="0" stop-color="#02050A"/><stop offset="0.55" stop-color="#06101A"/><stop offset="1" stop-color="#02050A"/></linearGradient>
    <linearGradient id="cyan" x1="0" y1="0" x2="1" y2="0"><stop offset="0" stop-color="#0088FF"/><stop offset="0.5" stop-color="#62E5FF"/><stop offset="1" stop-color="#0088FF"/></linearGradient>
    <filter id="glow" x="-50%" y="-50%" width="200%" height="200%"><feGaussianBlur stdDeviation="5" result="b"/><feMerge><feMergeNode in="b"/><feMergeNode in="SourceGraphic"/></feMerge></filter>
    <pattern id="grid" width="40" height="40" patternUnits="userSpaceOnUse"><path d="M40 0H0V40" fill="none" stroke="#62E5FF" stroke-opacity="0.055"/></pattern>
  </defs>
  <rect width="1200" height="320" rx="26" fill="url(#bg)"/>
  <rect x="1" y="1" width="1198" height="318" rx="25" fill="none" stroke="#62E5FF" stroke-opacity="0.25"/>
  <rect width="1200" height="320" rx="26" fill="url(#grid)"/>
  <path d="M0 255C190 218 270 302 440 264S735 221 900 256S1080 286 1200 242" fill="none" stroke="url(#cyan)" stroke-opacity="0.24" stroke-width="2"/>
  <g transform="translate(68 57)">
    <rect width="170" height="170" rx="36" fill="#07111C" stroke="#62E5FF" stroke-opacity="0.55"/>
    <path d="M48 35H109V128L78 109L48 128Z" fill="#0B2035" stroke="#62E5FF" stroke-width="6" stroke-linejoin="round" filter="url(#glow)"/>
    <path d="M118 63l-18 18 18 18M137 63l18 18-18 18" fill="none" stroke="#0088FF" stroke-width="7" stroke-linecap="round" stroke-linejoin="round"/>
    <path d="M130 57l-9 49" stroke="#62E5FF" stroke-width="5" stroke-linecap="round"/>
  </g>
  <text x="280" y="70" font-family="Segoe UI, Arial, sans-serif" font-size="18" font-weight="700" letter-spacing="4" fill="#62E5FF">SWIR PROJECT</text>
  <text x="280" y="145" font-family="Segoe UI, Arial, sans-serif" font-size="58" font-weight="800" fill="#F4FAFF">POWERBOOKMARK</text>
  <text x="282" y="190" font-family="Segoe UI, Arial, sans-serif" font-size="24" font-weight="500" fill="#B8D2E0">Local JavaScript snippet and page-tool manager.</text>
  <text x="282" y="232" font-family="Segoe UI, Arial, sans-serif" font-size="16" font-weight="650" letter-spacing="1.5" fill="#62E5FF">CHROMIUM  •  MANIFEST V3  •  LOCAL STORAGE</text>
  <g transform="translate(1015 242)"><circle r="4" fill="#62E5FF"/><circle cx="25" r="4" fill="#0088FF"/><circle cx="50" r="4" fill="#62E5FF" opacity="0.5"/></g>
</svg>
